<svg width="30" height="31" viewBox="0 0 30 31" fill="none" xmlns="http://www.w3.org/2000/svg">
<path d="M11.813 24.7786C11.813 24.7786 6.85714 23.5525 5.09107 21.5411C3.32599 19.5286 0.478941 16.6835 0.724351 4.66238C0.724351 4.66238 2.58927 2.74927 12.5001 8.09714M19.5112 24.0099C19.2162 24.7462 20.1535 30.0773 20.1535 30.0773C20.1535 30.0773 16.3268 27.5755 14.4137 22.9634C12.4996 18.3512 13.2363 17.4193 13.3834 14.7207C13.5299 12.0217 16.0145 7.81091 17.4801 6.40435C18.536 5.39025 22.0711 2.72566 23.9901 1.29599C24.1535 1.1745 24.3399 1.08758 24.538 1.04054C24.7361 0.993498 24.9418 0.987325 25.1423 1.02239C25.3429 1.05747 25.5342 1.13304 25.7046 1.24451C25.875 1.35599 26.0209 1.50101 26.1334 1.67074C28.3573 4.99533 29.6291 8.90664 29.546 12.906C29.4968 15.278 28.973 17.6696 27.4283 19.2517C27.4283 19.2517 23.785 22.7671 20.8406 23.1104C17.8971 23.4537 19.8501 28.8271 19.8501 28.8271L19.5112 24.0099Z" stroke="#010202" stroke-width="0.5" stroke-linecap="round" stroke-linejoin="round"/>
</svg>
