<svg width="24" height="24" viewBox="0 0 24 24" fill="none" xmlns="http://www.w3.org/2000/svg">
<path fill-rule="evenodd" clip-rule="evenodd" d="M20.8283 7.15659C20.9381 7.26778 20.9998 7.41779 20.9998 7.57409C20.9998 7.7304 20.9381 7.88041 20.8283 7.99159L12.4003 16.8206C12.35 16.877 12.2884 16.9221 12.2194 16.953C12.1505 16.9838 12.0758 16.9998 12.0003 16.9998C11.9247 16.9998 11.8501 16.9838 11.7811 16.953C11.7122 16.9221 11.6506 16.877 11.6003 16.8206L3.17229 8.02059C3.06307 7.90914 3.00141 7.75963 3.00028 7.60359C3.00098 7.44747 3.06272 7.29781 3.17229 7.18659C3.22257 7.13022 3.28419 7.08511 3.35313 7.05423C3.42206 7.02334 3.49675 7.00738 3.57228 7.00738C3.64782 7.00738 3.72251 7.02334 3.79144 7.05423C3.86038 7.08511 3.922 7.13022 3.97228 7.18659L12.0013 15.5376L20.0303 7.15459C20.1394 7.05465 20.2822 6.99939 20.4302 6.99976C20.5782 7.00013 20.7206 7.05611 20.8293 7.15659L20.8283 7.15659Z" fill="black"/>
</svg>
