<svg width="118" height="21" viewBox="0 0 118 21" fill="none" xmlns="http://www.w3.org/2000/svg">
<g clip-path="url(#clip0_133_5539)">
<path d="M8.5 1.18994C6.24599 1.191 4.08459 2.08687 2.49076 3.6807C0.896933 5.27453 0.00105996 7.43593 0 9.68994C0 14.3819 3.808 18.1899 8.5 18.1899C13.192 18.1899 17 14.3819 17 9.68994C17 4.99794 13.192 1.18994 8.5 1.18994ZM8.5 1.59594C12.975 1.59594 16.6 5.21494 16.6 9.68994C16.6 14.1649 12.975 17.7899 8.5 17.7899C7.43622 17.7902 6.38281 17.5809 5.39995 17.1739C4.4171 16.7669 3.52406 16.1703 2.77185 15.4181C2.01964 14.6659 1.42301 13.7728 1.01604 12.79C0.609071 11.8071 0.399737 10.7537 0.4 9.68994C0.399868 8.62648 0.609335 7.57342 1.01642 6.59096C1.42351 5.6085 2.02025 4.71591 2.77251 3.9642C3.52476 3.2125 4.4178 2.61643 5.40056 2.21007C6.38332 1.80371 7.43654 1.59502 8.5 1.59594ZM11.8 7.37994C11.7768 7.38615 11.7548 7.39629 11.735 7.40994L8.476 9.39694L8.452 9.40894C8.44786 9.41064 8.44384 9.41265 8.44 9.41494L8.434 9.42094L8.428 9.42694L8.422 9.43294L8.411 9.44494L8.405 9.44994L8.399 9.45594L8.393 9.46794L8.387 9.47394L8.381 9.47994V9.49194L8.375 9.49794L8.369 9.50994L8.363 9.52194V9.53894L8.357 9.54494V9.58094V15.5569C8.357 15.61 8.37807 15.6609 8.41558 15.6984C8.45309 15.7359 8.50396 15.7569 8.557 15.7569C8.61004 15.7569 8.66091 15.7359 8.69842 15.6984C8.73593 15.6609 8.757 15.61 8.757 15.5569V9.69294L11.944 7.74694C11.9867 7.72374 12.0195 7.68579 12.0362 7.64019C12.053 7.59458 12.0526 7.54444 12.035 7.49912C12.0175 7.4538 11.9841 7.41641 11.941 7.39393C11.898 7.37144 11.8482 7.36541 11.801 7.37694V7.37894L11.8 7.37994Z" fill="black"/>
</g>
<path d="M37.78 10.574C37.78 11.51 37.642 12.392 37.366 13.22C37.09 14.036 36.688 14.75 36.16 15.362C35.644 15.962 35.008 16.436 34.252 16.784C33.496 17.132 32.638 17.306 31.678 17.306C30.718 17.306 29.854 17.132 29.086 16.784C28.33 16.436 27.688 15.962 27.16 15.362C26.644 14.75 26.248 14.036 25.972 13.22C25.696 12.392 25.558 11.51 25.558 10.574C25.558 9.638 25.696 8.762 25.972 7.946C26.248 7.118 26.644 6.404 27.16 5.804C27.688 5.192 28.33 4.712 29.086 4.364C29.854 4.016 30.718 3.842 31.678 3.842C32.638 3.842 33.496 4.016 34.252 4.364C35.008 4.712 35.644 5.192 36.16 5.804C36.688 6.404 37.09 7.118 37.366 7.946C37.642 8.762 37.78 9.638 37.78 10.574ZM26.35 10.574C26.35 11.402 26.47 12.182 26.71 12.914C26.95 13.646 27.298 14.288 27.754 14.84C28.21 15.38 28.768 15.812 29.428 16.136C30.088 16.46 30.838 16.622 31.678 16.622C32.518 16.622 33.262 16.46 33.91 16.136C34.57 15.812 35.128 15.38 35.584 14.84C36.04 14.288 36.388 13.646 36.628 12.914C36.868 12.182 36.988 11.402 36.988 10.574C36.988 9.746 36.868 8.966 36.628 8.234C36.388 7.502 36.04 6.866 35.584 6.326C35.128 5.774 34.57 5.336 33.91 5.012C33.262 4.688 32.518 4.526 31.678 4.526C30.838 4.526 30.088 4.688 29.428 5.012C28.768 5.336 28.21 5.774 27.754 6.326C27.298 6.866 26.95 7.502 26.71 8.234C26.47 8.966 26.35 9.746 26.35 10.574ZM42.1658 9.872H42.2018C42.2738 9.644 42.3938 9.392 42.5618 9.116C42.7298 8.84 42.9518 8.588 43.2278 8.36C43.5038 8.12 43.8338 7.922 44.2178 7.766C44.6138 7.61 45.0638 7.532 45.5678 7.532C46.2758 7.532 46.8878 7.664 47.4038 7.928C47.9318 8.192 48.3638 8.546 48.6998 8.99C49.0478 9.434 49.3058 9.95 49.4738 10.538C49.6418 11.126 49.7258 11.744 49.7258 12.392C49.7258 13.1 49.6418 13.748 49.4738 14.336C49.3058 14.924 49.0478 15.434 48.6998 15.866C48.3638 16.286 47.9318 16.616 47.4038 16.856C46.8878 17.096 46.2758 17.216 45.5678 17.216C44.7998 17.216 44.1158 17.048 43.5158 16.712C42.9158 16.376 42.4778 15.83 42.2018 15.074H42.1658V20.312H41.4818V7.748H42.1658V9.872ZM45.5678 16.622C46.1678 16.622 46.6838 16.508 47.1158 16.28C47.5598 16.052 47.9198 15.746 48.1958 15.362C48.4838 14.978 48.6938 14.534 48.8258 14.03C48.9698 13.514 49.0418 12.968 49.0418 12.392C49.0418 11.864 48.9758 11.348 48.8438 10.844C48.7118 10.328 48.5078 9.872 48.2318 9.476C47.9558 9.068 47.5958 8.744 47.1518 8.504C46.7198 8.252 46.1918 8.126 45.5678 8.126C44.9558 8.126 44.4338 8.246 44.0018 8.486C43.5698 8.726 43.2158 9.044 42.9398 9.44C42.6758 9.836 42.4838 10.292 42.3638 10.808C42.2438 11.312 42.1838 11.84 42.1838 12.392C42.1838 12.944 42.2378 13.478 42.3458 13.994C42.4538 14.498 42.6338 14.948 42.8858 15.344C43.1498 15.728 43.4978 16.04 43.9298 16.28C44.3738 16.508 44.9198 16.622 45.5678 16.622ZM53.5618 12.464V12.572C53.5618 13.112 53.6338 13.628 53.7778 14.12C53.9218 14.612 54.1318 15.044 54.4078 15.416C54.6958 15.788 55.0498 16.082 55.4698 16.298C55.9018 16.514 56.3998 16.622 56.9638 16.622C57.8878 16.622 58.6198 16.382 59.1598 15.902C59.6998 15.41 60.0718 14.732 60.2758 13.868H60.9598C60.7558 14.948 60.3118 15.776 59.6278 16.352C58.9558 16.928 58.0618 17.216 56.9458 17.216C56.2618 17.216 55.6618 17.096 55.1458 16.856C54.6418 16.604 54.2158 16.268 53.8678 15.848C53.5318 15.416 53.2798 14.912 53.1118 14.336C52.9438 13.748 52.8598 13.118 52.8598 12.446C52.8598 11.798 52.9438 11.18 53.1118 10.592C53.2918 9.992 53.5558 9.47 53.9038 9.026C54.2518 8.57 54.6838 8.21 55.1998 7.946C55.7278 7.67 56.3458 7.532 57.0538 7.532C57.7018 7.532 58.2718 7.652 58.7638 7.892C59.2678 8.132 59.6878 8.462 60.0238 8.882C60.3598 9.29 60.6118 9.77 60.7798 10.322C60.9598 10.862 61.0498 11.444 61.0498 12.068C61.0498 12.128 61.0438 12.2 61.0318 12.284C61.0318 12.356 61.0318 12.416 61.0318 12.464H53.5618ZM60.3478 11.87C60.3238 11.366 60.2398 10.892 60.0958 10.448C59.9518 9.992 59.7358 9.596 59.4478 9.26C59.1718 8.912 58.8298 8.636 58.4218 8.432C58.0258 8.228 57.5698 8.126 57.0538 8.126C56.5018 8.126 56.0158 8.234 55.5958 8.45C55.1758 8.654 54.8218 8.93 54.5338 9.278C54.2458 9.614 54.0238 10.01 53.8678 10.466C53.7118 10.922 53.6158 11.39 53.5798 11.87H60.3478ZM64.5957 7.748H65.2797V9.728H65.3157C65.4357 9.38 65.6037 9.074 65.8197 8.81C66.0477 8.534 66.3057 8.3 66.5937 8.108C66.8937 7.916 67.2177 7.772 67.5657 7.676C67.9137 7.58 68.2677 7.532 68.6277 7.532C69.1677 7.532 69.6237 7.598 69.9957 7.73C70.3797 7.862 70.6917 8.036 70.9317 8.252C71.1717 8.468 71.3577 8.714 71.4897 8.99C71.6337 9.254 71.7357 9.524 71.7957 9.8C71.8557 10.076 71.8917 10.346 71.9037 10.61C71.9157 10.862 71.9217 11.084 71.9217 11.276V17H71.2377V11.15C71.2377 10.922 71.2197 10.634 71.1837 10.286C71.1477 9.938 71.0397 9.608 70.8597 9.296C70.6917 8.972 70.4277 8.696 70.0677 8.468C69.7197 8.24 69.2337 8.126 68.6097 8.126C68.0817 8.126 67.6137 8.222 67.2057 8.414C66.7977 8.606 66.4497 8.876 66.1617 9.224C65.8737 9.56 65.6517 9.968 65.4957 10.448C65.3517 10.916 65.2797 11.432 65.2797 11.996V17H64.5957V7.748ZM82.8795 7.748H83.5635V9.728H83.5995C83.7195 9.38 83.8875 9.074 84.1035 8.81C84.3315 8.534 84.5895 8.3 84.8775 8.108C85.1775 7.916 85.5015 7.772 85.8495 7.676C86.1975 7.58 86.5515 7.532 86.9115 7.532C87.4515 7.532 87.9075 7.598 88.2795 7.73C88.6635 7.862 88.9755 8.036 89.2155 8.252C89.4555 8.468 89.6415 8.714 89.7735 8.99C89.9175 9.254 90.0195 9.524 90.0795 9.8C90.1395 10.076 90.1755 10.346 90.1875 10.61C90.1995 10.862 90.2055 11.084 90.2055 11.276V17H89.5215V11.15C89.5215 10.922 89.5035 10.634 89.4675 10.286C89.4315 9.938 89.3235 9.608 89.1435 9.296C88.9755 8.972 88.7115 8.696 88.3515 8.468C88.0035 8.24 87.5175 8.126 86.8935 8.126C86.3655 8.126 85.8975 8.222 85.4895 8.414C85.0815 8.606 84.7335 8.876 84.4455 9.224C84.1575 9.56 83.9355 9.968 83.7795 10.448C83.6355 10.916 83.5635 11.432 83.5635 11.996V17H82.8795V7.748ZM93.7515 12.374C93.7515 11.714 93.8415 11.096 94.0215 10.52C94.2135 9.932 94.4895 9.416 94.8495 8.972C95.2095 8.528 95.6535 8.18 96.1815 7.928C96.7095 7.664 97.3155 7.532 97.9995 7.532C98.6835 7.532 99.2895 7.664 99.8175 7.928C100.345 8.18 100.789 8.528 101.149 8.972C101.509 9.416 101.779 9.932 101.959 10.52C102.151 11.096 102.247 11.714 102.247 12.374C102.247 13.034 102.151 13.658 101.959 14.246C101.779 14.834 101.509 15.35 101.149 15.794C100.789 16.226 100.345 16.574 99.8175 16.838C99.2895 17.09 98.6835 17.216 97.9995 17.216C97.3155 17.216 96.7095 17.09 96.1815 16.838C95.6535 16.574 95.2095 16.226 94.8495 15.794C94.4895 15.35 94.2135 14.834 94.0215 14.246C93.8415 13.658 93.7515 13.034 93.7515 12.374ZM94.4355 12.374C94.4355 12.926 94.5135 13.46 94.6695 13.976C94.8255 14.48 95.0535 14.93 95.3535 15.326C95.6535 15.722 96.0255 16.04 96.4695 16.28C96.9135 16.508 97.4235 16.622 97.9995 16.622C98.5755 16.622 99.0855 16.508 99.5295 16.28C99.9735 16.04 100.345 15.722 100.645 15.326C100.945 14.93 101.173 14.48 101.329 13.976C101.485 13.46 101.563 12.926 101.563 12.374C101.563 11.822 101.485 11.294 101.329 10.79C101.173 10.274 100.945 9.818 100.645 9.422C100.345 9.026 99.9735 8.714 99.5295 8.486C99.0855 8.246 98.5755 8.126 97.9995 8.126C97.4235 8.126 96.9135 8.246 96.4695 8.486C96.0255 8.714 95.6535 9.026 95.3535 9.422C95.0535 9.818 94.8255 10.274 94.6695 10.79C94.5135 11.294 94.4355 11.822 94.4355 12.374ZM108.125 16.208H108.161L110.681 7.748H111.599L114.137 16.208H114.173L116.765 7.748H117.521L114.551 17H113.705L111.167 8.612H111.131L108.575 17H107.711L104.777 7.748H105.515L108.125 16.208Z" fill="black"/>
<defs>
<clipPath id="clip0_133_5539">
<rect width="17" height="18" fill="white" transform="translate(0 1)"/>
</clipPath>
</defs>
</svg>
