<svg width="30" height="31" viewBox="0 0 30 31" fill="none" xmlns="http://www.w3.org/2000/svg">
<path fill-rule="evenodd" clip-rule="evenodd" d="M17.713 21.9299L11.1465 12.8999L18.103 21.6352C18.183 21.7345 18.1617 21.8831 18.0552 21.967C17.9491 22.0503 17.7987 22.0371 17.7191 21.9383C17.7168 21.9357 17.7148 21.9329 17.713 21.9299Z" fill="#010202"/>
<path d="M17.7566 21.573C18.12 22.0371 18.4548 26.1127 18.4548 26.1127C18.4548 26.1127 20.8374 23.418 21.3748 19.6394C21.9113 15.8607 21.1792 15.3555 20.5435 13.4364C19.9079 11.5173 17.2261 9.04318 15.8539 8.36377C14.8644 7.87406 11.6957 6.76053 9.97917 6.16891C9.36091 5.95715 8.66395 6.30656 8.44439 6.9348C7.42526 9.8545 7.23178 12.9776 8.07221 15.8527C8.57091 17.5574 9.4283 19.1677 10.8948 19.9566C10.8948 19.9566 14.3105 21.6595 16.5848 21.2289C18.8583 20.7983 18.44 25.1377 18.44 25.1377" stroke="#010202" stroke-width="0.5" stroke-linecap="round" stroke-linejoin="round"/>
<path fill-rule="evenodd" clip-rule="evenodd" d="M15.1877 29.8626L13.4425 30.1679L11.8199 29.4479L10.0538 29.3204L8.64817 28.2272L6.96295 27.6744L5.85643 26.2715L4.35078 25.326L3.60686 23.6954L2.36773 22.4116L2.03034 20.6469L1.13034 19.0997L1.2186 17.305L0.709473 15.584L1.21817 13.8629L1.13034 12.0682L2.03034 10.5206L2.36773 8.75677L3.60686 7.47294L4.35034 5.84191L5.85643 4.89603L6.96295 3.49309L8.64817 2.94074L10.0538 1.8475L11.8199 1.72L13.4425 1L15.1877 1.30529L16.933 1L18.5556 1.72L20.3216 1.8475L21.7273 2.94074L23.4125 3.49353L24.519 4.89647L26.0247 5.84191L26.7686 7.4725L28.0077 8.75632L28.3451 10.521L29.2451 12.0682L29.1569 13.8629L29.666 15.584L29.1573 17.305L29.2451 19.0997L28.3451 20.6474L28.0077 22.4112L26.7686 23.695L26.0251 25.326L24.519 26.2719L23.4125 27.6749L21.7273 28.2272L20.3216 29.3204L18.5556 29.4479L16.933 30.1679L15.1877 29.8626Z" stroke="black" stroke-width="0.5"/>
</svg>
