<svg width="121" height="105" viewBox="0 0 121 105" fill="none" xmlns="http://www.w3.org/2000/svg">
<g opacity="0.5">
<path fill-rule="evenodd" clip-rule="evenodd" d="M42.4372 2.04169H78.5625L82.9582 46.9583H38.0415L42.4372 2.04169Z" stroke="black" stroke-width="0.5" stroke-linecap="round" stroke-linejoin="round"/>
<path d="M49.3257 8.33002C49.3257 8.33002 47.4351 24.8634 60.4589 24.6634C73.4847 24.4592 71.5921 8.33002 71.5921 8.33002" stroke="black" stroke-width="0.5" stroke-linecap="round" stroke-linejoin="round"/>
<path d="M11.4244 69.576H12.2084L7.61644 76.216V81H6.91244V76.216L2.35244 69.576H3.15244L7.28044 75.624L11.4244 69.576ZM24.4403 75.288C24.4403 76.12 24.3176 76.904 24.0723 77.64C23.827 78.3653 23.4696 79 23.0003 79.544C22.5416 80.0773 21.9763 80.4987 21.3043 80.808C20.6323 81.1173 19.8696 81.272 19.0163 81.272C18.163 81.272 17.395 81.1173 16.7123 80.808C16.0403 80.4987 15.4696 80.0773 15.0003 79.544C14.5416 79 14.1896 78.3653 13.9443 77.64C13.699 76.904 13.5763 76.12 13.5763 75.288C13.5763 74.456 13.699 73.6773 13.9443 72.952C14.1896 72.216 14.5416 71.5813 15.0003 71.048C15.4696 70.504 16.0403 70.0773 16.7123 69.768C17.395 69.4587 18.163 69.304 19.0163 69.304C19.8696 69.304 20.6323 69.4587 21.3043 69.768C21.9763 70.0773 22.5416 70.504 23.0003 71.048C23.4696 71.5813 23.827 72.216 24.0723 72.952C24.3176 73.6773 24.4403 74.456 24.4403 75.288ZM14.2803 75.288C14.2803 76.024 14.387 76.7173 14.6003 77.368C14.8136 78.0187 15.123 78.5893 15.5283 79.08C15.9336 79.56 16.4296 79.944 17.0163 80.232C17.603 80.52 18.2696 80.664 19.0163 80.664C19.763 80.664 20.4243 80.52 21.0003 80.232C21.587 79.944 22.083 79.56 22.4883 79.08C22.8936 78.5893 23.203 78.0187 23.4163 77.368C23.6296 76.7173 23.7363 76.024 23.7363 75.288C23.7363 74.552 23.6296 73.8587 23.4163 73.208C23.203 72.5573 22.8936 71.992 22.4883 71.512C22.083 71.0213 21.587 70.632 21.0003 70.344C20.4243 70.056 19.763 69.912 19.0163 69.912C18.2696 69.912 17.603 70.056 17.0163 70.344C16.4296 70.632 15.9336 71.0213 15.5283 71.512C15.123 71.992 14.8136 72.5573 14.6003 73.208C14.387 73.8587 14.2803 74.552 14.2803 75.288ZM28.6217 69.576V76.424C28.6217 76.648 28.6324 76.9093 28.6537 77.208C28.675 77.5067 28.7284 77.816 28.8137 78.136C28.899 78.4453 29.0164 78.7547 29.1657 79.064C29.3257 79.3627 29.539 79.6347 29.8057 79.88C30.0724 80.1147 30.3977 80.3067 30.7817 80.456C31.1764 80.5947 31.651 80.664 32.2057 80.664C32.9097 80.664 33.4964 80.568 33.9657 80.376C34.4457 80.1733 34.8297 79.8907 35.1177 79.528C35.4164 79.1547 35.6297 78.7067 35.7577 78.184C35.8857 77.6613 35.9497 77.0747 35.9497 76.424V69.576H36.6537V76.424C36.6537 77.1067 36.579 77.7413 36.4297 78.328C36.291 78.9147 36.051 79.4267 35.7097 79.864C35.3684 80.3013 34.9097 80.648 34.3337 80.904C33.7684 81.1493 33.059 81.272 32.2057 81.272C31.5337 81.272 30.9577 81.1867 30.4777 81.016C29.9977 80.8453 29.5977 80.6267 29.2777 80.36C28.9684 80.0827 28.723 79.768 28.5417 79.416C28.3604 79.064 28.2217 78.712 28.1257 78.36C28.0297 77.9973 27.971 77.6507 27.9497 77.32C27.9284 76.9787 27.9177 76.68 27.9177 76.424V69.576H28.6217ZM40.6377 69.576H45.4057C45.907 69.576 46.3764 69.6293 46.8137 69.736C47.251 69.832 47.635 69.9973 47.9657 70.232C48.2964 70.456 48.5524 70.7547 48.7337 71.128C48.9257 71.5013 49.0217 71.9653 49.0217 72.52C49.0217 73.288 48.803 73.9387 48.3657 74.472C47.939 74.9947 47.3417 75.32 46.5737 75.448V75.48C47.0964 75.544 47.507 75.6827 47.8057 75.896C48.115 76.1093 48.3444 76.3707 48.4937 76.68C48.643 76.9893 48.739 77.3307 48.7817 77.704C48.8244 78.0773 48.8457 78.4507 48.8457 78.824C48.8457 79.048 48.8457 79.2667 48.8457 79.48C48.8457 79.6933 48.8564 79.896 48.8777 80.088C48.899 80.2693 48.931 80.44 48.9737 80.6C49.027 80.76 49.0964 80.8933 49.1817 81H48.3977C48.2484 80.7333 48.163 80.424 48.1417 80.072C48.131 79.7093 48.1257 79.336 48.1257 78.952C48.1257 78.568 48.1097 78.1893 48.0777 77.816C48.0457 77.432 47.9444 77.0907 47.7737 76.792C47.603 76.4933 47.331 76.2533 46.9577 76.072C46.595 75.8907 46.0777 75.8 45.4057 75.8H41.3417V81H40.6377V69.576ZM45.4057 75.192C45.8217 75.192 46.2057 75.144 46.5577 75.048C46.9204 74.9413 47.2297 74.7813 47.4857 74.568C47.7417 74.3547 47.9444 74.0827 48.0937 73.752C48.243 73.4213 48.3177 73.0267 48.3177 72.568C48.3177 72.1413 48.2377 71.7787 48.0777 71.48C47.9177 71.1707 47.7044 70.92 47.4377 70.728C47.171 70.536 46.8617 70.3973 46.5097 70.312C46.1577 70.2267 45.7897 70.184 45.4057 70.184H41.3417V75.192H45.4057ZM59.1089 69.576H63.6849C64.3676 69.576 64.9383 69.6613 65.3969 69.832C65.8556 70.0027 66.2236 70.2267 66.5009 70.504C66.7783 70.7813 66.9756 71.1013 67.0929 71.464C67.2209 71.816 67.2849 72.1733 67.2849 72.536C67.2849 72.8453 67.2316 73.1387 67.1249 73.416C67.0183 73.6933 66.8636 73.9387 66.6609 74.152C66.4689 74.3653 66.2343 74.5467 65.9569 74.696C65.6903 74.8347 65.3916 74.9253 65.0609 74.968L65.0929 75C65.1676 74.9893 65.3436 75.0213 65.6209 75.096C65.8983 75.1707 66.1863 75.3147 66.4849 75.528C66.7943 75.7307 67.0663 76.0187 67.3009 76.392C67.5463 76.7547 67.6689 77.224 67.6689 77.8C67.6689 78.3227 67.5729 78.7813 67.3809 79.176C67.1889 79.5707 66.9169 79.9067 66.5649 80.184C66.2236 80.4507 65.8076 80.6533 65.3169 80.792C64.8263 80.9307 64.2823 81 63.6849 81H59.1089V69.576ZM63.6849 74.76C64.6556 74.76 65.3809 74.5467 65.8609 74.12C66.3409 73.6827 66.5809 73.112 66.5809 72.408C66.5809 71.992 66.5009 71.6453 66.3409 71.368C66.1809 71.08 65.9676 70.8507 65.7009 70.68C65.4343 70.4987 65.1249 70.3707 64.7729 70.296C64.4316 70.2213 64.0689 70.184 63.6849 70.184H59.8129V74.76H63.6849ZM63.6849 80.392C64.7089 80.392 65.5089 80.1787 66.0849 79.752C66.6716 79.3147 66.9649 78.664 66.9649 77.8C66.9649 77.3093 66.8636 76.9093 66.6609 76.6C66.4583 76.28 66.1969 76.0293 65.8769 75.848C65.5676 75.6667 65.2156 75.544 64.8209 75.48C64.4369 75.4053 64.0583 75.368 63.6849 75.368H59.8129V80.392H63.6849ZM74.5491 69.576H75.3171L79.8291 81H79.0771L77.6371 77.336H72.1651L70.7091 81H69.9571L74.5491 69.576ZM77.4131 76.728L74.9651 70.264H74.9331L72.3891 76.728H77.4131ZM81.9142 75.352C81.9142 74.5413 82.0315 73.7733 82.2662 73.048C82.5115 72.312 82.8635 71.6667 83.3222 71.112C83.7809 70.5573 84.3409 70.12 85.0022 69.8C85.6742 69.4693 86.4422 69.304 87.3062 69.304C87.8929 69.304 88.4529 69.3893 88.9862 69.56C89.5195 69.7307 89.9942 69.9813 90.4102 70.312C90.8369 70.6427 91.1942 71.0427 91.4822 71.512C91.7702 71.9813 91.9622 72.5147 92.0582 73.112H91.3862C91.1195 72.1093 90.6395 71.3253 89.9462 70.76C89.2529 70.1947 88.3782 69.912 87.3222 69.912C86.5542 69.912 85.8769 70.0613 85.2902 70.36C84.7035 70.6587 84.2129 71.0587 83.8182 71.56C83.4235 72.0613 83.1249 72.6427 82.9222 73.304C82.7195 73.9547 82.6182 74.6373 82.6182 75.352C82.6182 76.0773 82.7142 76.7653 82.9062 77.416C83.1089 78.056 83.4022 78.616 83.7862 79.096C84.1809 79.576 84.6715 79.96 85.2582 80.248C85.8449 80.5253 86.5329 80.664 87.3222 80.664C88.0049 80.664 88.6182 80.552 89.1622 80.328C89.7062 80.104 90.1649 79.7893 90.5382 79.384C90.9222 78.9787 91.2102 78.4933 91.4022 77.928C91.5942 77.352 91.6742 76.712 91.6422 76.008H87.4342V75.4H92.2502V81H91.6422V78.568H91.6102C91.4715 78.984 91.2635 79.3627 90.9862 79.704C90.7089 80.0347 90.3782 80.3173 89.9942 80.552C89.6209 80.776 89.1995 80.952 88.7302 81.08C88.2715 81.208 87.7915 81.272 87.2902 81.272C86.4262 81.272 85.6582 81.1173 84.9862 80.808C84.3249 80.4987 83.7649 80.0773 83.3062 79.544C82.8475 79.0107 82.5009 78.3867 82.2662 77.672C82.0315 76.9467 81.9142 76.1733 81.9142 75.352ZM102.583 69.576H103.287V81H102.583V69.576ZM114.727 72.84C114.706 72.3493 114.599 71.9227 114.407 71.56C114.226 71.1973 113.975 70.8933 113.655 70.648C113.335 70.4027 112.951 70.2213 112.503 70.104C112.066 69.976 111.586 69.912 111.063 69.912C110.743 69.912 110.397 69.9493 110.023 70.024C109.661 70.0987 109.319 70.232 108.999 70.424C108.69 70.6053 108.434 70.856 108.231 71.176C108.029 71.4853 107.927 71.8747 107.927 72.344C107.927 72.8027 108.039 73.176 108.263 73.464C108.487 73.752 108.781 73.9867 109.143 74.168C109.506 74.3387 109.922 74.4773 110.391 74.584C110.861 74.6907 111.335 74.792 111.815 74.888C112.306 74.984 112.781 75.1013 113.239 75.24C113.709 75.368 114.125 75.5493 114.487 75.784C114.861 76.008 115.159 76.3067 115.383 76.68C115.607 77.0427 115.719 77.5013 115.719 78.056C115.719 78.6533 115.591 79.1547 115.335 79.56C115.079 79.9653 114.754 80.296 114.359 80.552C113.975 80.808 113.543 80.9893 113.063 81.096C112.594 81.2133 112.141 81.272 111.703 81.272C111.031 81.272 110.402 81.1973 109.815 81.048C109.229 80.9093 108.717 80.68 108.279 80.36C107.842 80.0293 107.495 79.608 107.239 79.096C106.994 78.584 106.877 77.96 106.887 77.224H107.591C107.559 77.8533 107.65 78.3867 107.863 78.824C108.077 79.2507 108.37 79.6027 108.743 79.88C109.127 80.1573 109.575 80.36 110.087 80.488C110.599 80.6053 111.138 80.664 111.703 80.664C112.045 80.664 112.407 80.6213 112.791 80.536C113.186 80.4507 113.543 80.3067 113.863 80.104C114.194 79.9013 114.466 79.6347 114.679 79.304C114.903 78.9733 115.015 78.5573 115.015 78.056C115.015 77.576 114.903 77.1867 114.679 76.888C114.455 76.5787 114.157 76.3333 113.783 76.152C113.421 75.96 113.005 75.8107 112.535 75.704C112.077 75.5867 111.602 75.48 111.111 75.384C110.631 75.288 110.157 75.176 109.687 75.048C109.218 74.92 108.802 74.7493 108.439 74.536C108.077 74.312 107.783 74.0293 107.559 73.688C107.335 73.336 107.223 72.888 107.223 72.344C107.223 71.8 107.335 71.336 107.559 70.952C107.794 70.5573 108.093 70.2427 108.455 70.008C108.829 69.7627 109.245 69.5867 109.703 69.48C110.162 69.3627 110.615 69.304 111.063 69.304C111.661 69.304 112.215 69.3733 112.727 69.512C113.25 69.64 113.703 69.848 114.087 70.136C114.482 70.4133 114.797 70.776 115.031 71.224C115.266 71.672 115.399 72.2107 115.431 72.84H114.727ZM33.0133 89.576H40.6933V90.184H33.7173V94.76H40.2773V95.368H33.7173V100.392H40.7733V101H33.0133V89.576ZM43.9364 89.576H44.9444L49.4084 100.216H49.4404L53.8564 89.576H54.8644V101H54.1604V90.44H54.1284L49.7764 101H49.0724L44.6724 90.44H44.6404V101H43.9364V89.576ZM58.8439 89.576H63.7079C64.0279 89.576 64.3799 89.6133 64.7639 89.688C65.1586 89.7627 65.5213 89.9173 65.8519 90.152C66.1933 90.376 66.4759 90.7013 66.6999 91.128C66.9239 91.544 67.0359 92.0933 67.0359 92.776C67.0359 93.7787 66.7266 94.552 66.1079 95.096C65.4893 95.64 64.6039 95.912 63.4519 95.912H59.5479V101H58.8439V89.576ZM59.5479 95.304H63.5639C64.0759 95.304 64.5079 95.2293 64.8599 95.08C65.2226 94.92 65.5106 94.7173 65.7239 94.472C65.9373 94.2267 66.0919 93.9547 66.1879 93.656C66.2839 93.3573 66.3319 93.0587 66.3319 92.76C66.3319 92.5467 66.2999 92.296 66.2359 92.008C66.1719 91.7093 66.0439 91.4267 65.8519 91.16C65.6599 90.8827 65.3879 90.6533 65.0359 90.472C64.6946 90.28 64.2359 90.184 63.6599 90.184H59.5479V95.304ZM69.0351 90.184V89.576H77.7871V90.184H73.7551V101H73.0511V90.184H69.0351ZM88.5432 89.576H89.3272L84.7352 96.216V101H84.0312V96.216L79.4712 89.576H80.2712L84.3992 95.624L88.5432 89.576Z" fill="black"/>
</g>
</svg>
