<svg width="227" height="35" viewBox="0 0 227 35" fill="none" xmlns="http://www.w3.org/2000/svg">
<path d="M5.53494 18.92L8.43894 10.928H8.48694L11.3429 18.92H5.53494ZM7.23894 8.864L0.566937 26H2.89494L4.81494 20.84H12.0629L13.9349 26H16.4549L9.75894 8.864H7.23894ZM19.9294 8.864V26H21.9694V8.864H19.9294ZM27.2498 8.864V26H29.2898V8.864H27.2498ZM43.4658 8.864V26H45.7458V18.68H51.3138C51.8738 18.68 52.3218 18.768 52.6578 18.944C52.9938 19.104 53.2658 19.328 53.4738 19.616C53.6818 19.888 53.8338 20.216 53.9297 20.6C54.0258 20.968 54.1058 21.36 54.1698 21.776C54.2498 22.192 54.2978 22.616 54.3138 23.048C54.3298 23.48 54.3458 23.888 54.3618 24.272C54.3778 24.64 54.4098 24.976 54.4578 25.28C54.5218 25.584 54.6338 25.824 54.7938 26H57.3378C57.0978 25.712 56.9138 25.384 56.7858 25.016C56.6738 24.632 56.5858 24.232 56.5218 23.816C56.4578 23.4 56.4178 22.976 56.4018 22.544C56.3858 22.112 56.3618 21.688 56.3298 21.272C56.2818 20.856 56.2098 20.456 56.1138 20.072C56.0338 19.688 55.8978 19.344 55.7057 19.04C55.5298 18.72 55.2818 18.448 54.9618 18.224C54.6578 18 54.2578 17.84 53.7618 17.744V17.696C54.8018 17.408 55.5538 16.872 56.0178 16.088C56.4978 15.304 56.7378 14.392 56.7378 13.352C56.7378 11.96 56.2738 10.864 55.3458 10.064C54.4338 9.264 53.1618 8.864 51.5298 8.864H43.4658ZM50.4978 16.76H45.7458V10.784H51.4098C52.4818 10.784 53.2578 11.056 53.7378 11.6C54.2178 12.144 54.4578 12.848 54.4578 13.712C54.4578 14.336 54.3458 14.848 54.1218 15.248C53.9138 15.632 53.6258 15.944 53.2578 16.184C52.9058 16.408 52.4898 16.56 52.0098 16.64C51.5298 16.72 51.0258 16.76 50.4978 16.76ZM70.1754 18.608H63.0474C63.0794 18.128 63.1834 17.68 63.3594 17.264C63.5354 16.832 63.7754 16.456 64.0794 16.136C64.3834 15.816 64.7434 15.568 65.1594 15.392C65.5914 15.2 66.0714 15.104 66.5994 15.104C67.1114 15.104 67.5754 15.2 67.9914 15.392C68.4234 15.568 68.7914 15.816 69.0954 16.136C69.4154 16.44 69.6634 16.808 69.8394 17.24C70.0314 17.672 70.1434 18.128 70.1754 18.608ZM72.1434 22.064H70.1274C69.9514 22.88 69.5834 23.488 69.0234 23.888C68.4794 24.288 67.7754 24.488 66.9114 24.488C66.2394 24.488 65.6554 24.376 65.1594 24.152C64.6634 23.928 64.2554 23.632 63.9354 23.264C63.6154 22.88 63.3834 22.448 63.2394 21.968C63.0954 21.472 63.0314 20.952 63.0474 20.408H72.3354C72.3674 19.656 72.2954 18.864 72.1194 18.032C71.9594 17.2 71.6554 16.432 71.2074 15.728C70.7754 15.024 70.1914 14.448 69.4554 14C68.7354 13.536 67.8234 13.304 66.7194 13.304C65.8714 13.304 65.0874 13.464 64.3674 13.784C63.6634 14.104 63.0474 14.552 62.5194 15.128C62.0074 15.704 61.6074 16.384 61.3194 17.168C61.0314 17.952 60.8874 18.816 60.8874 19.76C60.9194 20.704 61.0554 21.576 61.2954 22.376C61.5514 23.176 61.9274 23.864 62.4234 24.44C62.9194 25.016 63.5274 25.464 64.2474 25.784C64.9834 26.104 65.8474 26.264 66.8394 26.264C68.2474 26.264 69.4154 25.912 70.3434 25.208C71.2714 24.504 71.8714 23.456 72.1434 22.064ZM77.6981 22.088H75.6581C75.6901 22.856 75.8501 23.512 76.1381 24.056C76.4261 24.584 76.8101 25.016 77.2901 25.352C77.7701 25.672 78.3221 25.904 78.9461 26.048C79.5701 26.192 80.2261 26.264 80.9141 26.264C81.5381 26.264 82.1621 26.2 82.7861 26.072C83.4261 25.96 83.9941 25.752 84.4901 25.448C85.0021 25.144 85.4101 24.744 85.7141 24.248C86.0341 23.752 86.1941 23.128 86.1941 22.376C86.1941 21.784 86.0741 21.288 85.8341 20.888C85.6101 20.488 85.3061 20.16 84.9221 19.904C84.5541 19.632 84.1221 19.416 83.6261 19.256C83.1461 19.096 82.6501 18.96 82.1381 18.848C81.6581 18.736 81.1781 18.632 80.6981 18.536C80.2181 18.424 79.7861 18.296 79.4021 18.152C79.0181 17.992 78.6981 17.8 78.4421 17.576C78.2021 17.336 78.0821 17.04 78.0821 16.688C78.0821 16.368 78.1621 16.112 78.3221 15.92C78.4821 15.712 78.6901 15.552 78.9461 15.44C79.2021 15.312 79.4821 15.224 79.7861 15.176C80.1061 15.128 80.4181 15.104 80.7221 15.104C81.0581 15.104 81.3861 15.144 81.7061 15.224C82.0421 15.288 82.3461 15.4 82.6181 15.56C82.8901 15.72 83.1141 15.936 83.2901 16.208C83.4661 16.464 83.5701 16.792 83.6021 17.192H85.6421C85.5941 16.44 85.4341 15.816 85.1621 15.32C84.8901 14.808 84.5221 14.408 84.0581 14.12C83.6101 13.816 83.0901 13.608 82.4981 13.496C81.9061 13.368 81.2581 13.304 80.5541 13.304C80.0101 13.304 79.4581 13.376 78.8981 13.52C78.3541 13.648 77.8581 13.856 77.4101 14.144C76.9781 14.416 76.6181 14.776 76.3301 15.224C76.0581 15.672 75.9221 16.208 75.9221 16.832C75.9221 17.632 76.1221 18.256 76.5221 18.704C76.9221 19.152 77.4181 19.504 78.0101 19.76C78.6181 20 79.2741 20.192 79.9781 20.336C80.6821 20.464 81.3301 20.616 81.9221 20.792C82.5301 20.952 83.0341 21.168 83.4341 21.44C83.8341 21.712 84.0341 22.112 84.0341 22.64C84.0341 23.024 83.9381 23.344 83.7461 23.6C83.5541 23.84 83.3061 24.024 83.0021 24.152C82.7141 24.28 82.3941 24.368 82.0421 24.416C81.6901 24.464 81.3541 24.488 81.0341 24.488C80.6181 24.488 80.2101 24.448 79.8101 24.368C79.4261 24.288 79.0741 24.16 78.7541 23.984C78.4501 23.792 78.2021 23.544 78.0101 23.24C77.8181 22.92 77.7141 22.536 77.6981 22.088ZM93.2821 13.592V9.872H91.2421V13.592H89.1301V15.392H91.2421V23.288C91.2421 23.864 91.2981 24.328 91.4101 24.68C91.5221 25.032 91.6901 25.304 91.9141 25.496C92.1541 25.688 92.4581 25.824 92.8261 25.904C93.2101 25.968 93.6661 26 94.1941 26H95.7541V24.2H94.8181C94.4981 24.2 94.2341 24.192 94.0261 24.176C93.8341 24.144 93.6821 24.088 93.5701 24.008C93.4581 23.928 93.3781 23.816 93.3301 23.672C93.2981 23.528 93.2821 23.336 93.2821 23.096V15.392H95.7541V13.592H93.2821ZM111.012 25.952C110.66 26.16 110.172 26.264 109.548 26.264C109.02 26.264 108.596 26.12 108.276 25.832C107.972 25.528 107.82 25.04 107.82 24.368C107.26 25.04 106.604 25.528 105.852 25.832C105.116 26.12 104.316 26.264 103.452 26.264C102.892 26.264 102.356 26.2 101.844 26.072C101.348 25.944 100.916 25.744 100.548 25.472C100.18 25.2 99.8844 24.848 99.6604 24.416C99.4524 23.968 99.3484 23.432 99.3484 22.808C99.3484 22.104 99.4684 21.528 99.7084 21.08C99.9484 20.632 100.26 20.272 100.644 20C101.044 19.712 101.492 19.496 101.988 19.352C102.5 19.208 103.02 19.088 103.548 18.992C104.108 18.88 104.636 18.8 105.132 18.752C105.644 18.688 106.092 18.608 106.476 18.512C106.86 18.4 107.164 18.248 107.388 18.056C107.612 17.848 107.724 17.552 107.724 17.168C107.724 16.72 107.636 16.36 107.46 16.088C107.3 15.816 107.084 15.608 106.812 15.464C106.556 15.32 106.26 15.224 105.924 15.176C105.604 15.128 105.284 15.104 104.964 15.104C104.1 15.104 103.38 15.272 102.804 15.608C102.228 15.928 101.916 16.544 101.868 17.456H99.8284C99.8604 16.688 100.02 16.04 100.308 15.512C100.596 14.984 100.98 14.56 101.46 14.24C101.94 13.904 102.484 13.664 103.092 13.52C103.716 13.376 104.38 13.304 105.084 13.304C105.644 13.304 106.196 13.344 106.74 13.424C107.3 13.504 107.804 13.672 108.252 13.928C108.7 14.168 109.06 14.512 109.332 14.96C109.604 15.408 109.74 15.992 109.74 16.712V23.096C109.74 23.576 109.764 23.928 109.812 24.152C109.876 24.376 110.068 24.488 110.388 24.488C110.564 24.488 110.772 24.448 111.012 24.368V25.952ZM107.7 19.592C107.444 19.784 107.108 19.928 106.692 20.024C106.276 20.104 105.836 20.176 105.372 20.24C104.924 20.288 104.468 20.352 104.004 20.432C103.54 20.496 103.124 20.608 102.756 20.768C102.388 20.928 102.084 21.16 101.844 21.464C101.62 21.752 101.508 22.152 101.508 22.664C101.508 23 101.572 23.288 101.7 23.528C101.844 23.752 102.02 23.936 102.228 24.08C102.452 24.224 102.708 24.328 102.996 24.392C103.284 24.456 103.588 24.488 103.908 24.488C104.58 24.488 105.156 24.4 105.636 24.224C106.116 24.032 106.508 23.8 106.812 23.528C107.116 23.24 107.34 22.936 107.484 22.616C107.628 22.28 107.7 21.968 107.7 21.68V19.592ZM125.183 26V13.592H123.143V20.6C123.143 21.16 123.063 21.68 122.903 22.16C122.759 22.624 122.535 23.032 122.231 23.384C121.927 23.736 121.543 24.008 121.079 24.2C120.631 24.392 120.095 24.488 119.471 24.488C118.687 24.488 118.071 24.264 117.623 23.816C117.175 23.368 116.951 22.76 116.951 21.992V13.592H114.911V21.752C114.911 22.424 114.975 23.04 115.103 23.6C115.247 24.144 115.487 24.616 115.823 25.016C116.159 25.416 116.599 25.728 117.143 25.952C117.687 26.16 118.367 26.264 119.183 26.264C120.095 26.264 120.887 26.088 121.559 25.736C122.231 25.368 122.783 24.8 123.215 24.032H123.263V26H125.183ZM130.175 13.592V26H132.215V20.48C132.215 19.68 132.295 18.976 132.455 18.368C132.615 17.744 132.871 17.216 133.223 16.784C133.575 16.352 134.039 16.024 134.615 15.8C135.191 15.576 135.887 15.464 136.703 15.464V13.304C135.599 13.272 134.687 13.496 133.967 13.976C133.247 14.456 132.639 15.2 132.143 16.208H132.095V13.592H130.175ZM151.231 25.952C150.879 26.16 150.391 26.264 149.767 26.264C149.239 26.264 148.815 26.12 148.495 25.832C148.191 25.528 148.039 25.04 148.039 24.368C147.479 25.04 146.823 25.528 146.071 25.832C145.335 26.12 144.535 26.264 143.671 26.264C143.111 26.264 142.575 26.2 142.063 26.072C141.567 25.944 141.135 25.744 140.767 25.472C140.399 25.2 140.103 24.848 139.879 24.416C139.671 23.968 139.567 23.432 139.567 22.808C139.567 22.104 139.687 21.528 139.927 21.08C140.167 20.632 140.479 20.272 140.863 20C141.263 19.712 141.711 19.496 142.207 19.352C142.719 19.208 143.239 19.088 143.767 18.992C144.327 18.88 144.855 18.8 145.351 18.752C145.863 18.688 146.311 18.608 146.695 18.512C147.079 18.4 147.383 18.248 147.607 18.056C147.831 17.848 147.943 17.552 147.943 17.168C147.943 16.72 147.855 16.36 147.679 16.088C147.519 15.816 147.303 15.608 147.031 15.464C146.775 15.32 146.479 15.224 146.143 15.176C145.823 15.128 145.503 15.104 145.183 15.104C144.319 15.104 143.599 15.272 143.023 15.608C142.447 15.928 142.135 16.544 142.087 17.456H140.047C140.079 16.688 140.239 16.04 140.527 15.512C140.815 14.984 141.199 14.56 141.679 14.24C142.159 13.904 142.703 13.664 143.311 13.52C143.935 13.376 144.599 13.304 145.303 13.304C145.863 13.304 146.415 13.344 146.959 13.424C147.519 13.504 148.023 13.672 148.471 13.928C148.919 14.168 149.279 14.512 149.551 14.96C149.823 15.408 149.959 15.992 149.959 16.712V23.096C149.959 23.576 149.983 23.928 150.031 24.152C150.095 24.376 150.287 24.488 150.607 24.488C150.783 24.488 150.991 24.448 151.231 24.368V25.952ZM147.919 19.592C147.663 19.784 147.327 19.928 146.911 20.024C146.495 20.104 146.055 20.176 145.591 20.24C145.143 20.288 144.687 20.352 144.223 20.432C143.759 20.496 143.343 20.608 142.975 20.768C142.607 20.928 142.303 21.16 142.063 21.464C141.839 21.752 141.727 22.152 141.727 22.664C141.727 23 141.791 23.288 141.919 23.528C142.063 23.752 142.239 23.936 142.447 24.08C142.671 24.224 142.927 24.328 143.215 24.392C143.503 24.456 143.807 24.488 144.127 24.488C144.799 24.488 145.375 24.4 145.855 24.224C146.335 24.032 146.727 23.8 147.031 23.528C147.335 23.24 147.559 22.936 147.703 22.616C147.847 22.28 147.919 21.968 147.919 21.68V19.592ZM155.13 13.592V26H157.17V18.992C157.17 18.432 157.242 17.92 157.386 17.456C157.546 16.976 157.778 16.56 158.082 16.208C158.386 15.856 158.762 15.584 159.21 15.392C159.674 15.2 160.218 15.104 160.842 15.104C161.626 15.104 162.242 15.328 162.69 15.776C163.138 16.224 163.362 16.832 163.362 17.6V26H165.402V17.84C165.402 17.168 165.33 16.56 165.186 16.016C165.058 15.456 164.826 14.976 164.49 14.576C164.154 14.176 163.714 13.864 163.17 13.64C162.626 13.416 161.946 13.304 161.13 13.304C159.29 13.304 157.946 14.056 157.098 15.56H157.05V13.592H155.13ZM173.298 13.592V9.872H171.258V13.592H169.146V15.392H171.258V23.288C171.258 23.864 171.314 24.328 171.426 24.68C171.538 25.032 171.706 25.304 171.93 25.496C172.17 25.688 172.474 25.824 172.842 25.904C173.226 25.968 173.682 26 174.21 26H175.77V24.2H174.834C174.514 24.2 174.25 24.192 174.042 24.176C173.85 24.144 173.698 24.088 173.586 24.008C173.474 23.928 173.394 23.816 173.346 23.672C173.314 23.528 173.298 23.336 173.298 23.096V15.392H175.77V13.592H173.298ZM181.284 22.088H179.244C179.276 22.856 179.436 23.512 179.724 24.056C180.012 24.584 180.396 25.016 180.876 25.352C181.356 25.672 181.908 25.904 182.532 26.048C183.156 26.192 183.812 26.264 184.5 26.264C185.124 26.264 185.748 26.2 186.372 26.072C187.012 25.96 187.58 25.752 188.076 25.448C188.588 25.144 188.996 24.744 189.3 24.248C189.62 23.752 189.78 23.128 189.78 22.376C189.78 21.784 189.66 21.288 189.42 20.888C189.196 20.488 188.892 20.16 188.508 19.904C188.14 19.632 187.708 19.416 187.212 19.256C186.732 19.096 186.236 18.96 185.724 18.848C185.244 18.736 184.764 18.632 184.284 18.536C183.804 18.424 183.372 18.296 182.988 18.152C182.604 17.992 182.284 17.8 182.028 17.576C181.788 17.336 181.668 17.04 181.668 16.688C181.668 16.368 181.748 16.112 181.908 15.92C182.068 15.712 182.276 15.552 182.532 15.44C182.788 15.312 183.068 15.224 183.372 15.176C183.692 15.128 184.004 15.104 184.308 15.104C184.644 15.104 184.972 15.144 185.292 15.224C185.628 15.288 185.932 15.4 186.204 15.56C186.476 15.72 186.7 15.936 186.876 16.208C187.052 16.464 187.156 16.792 187.188 17.192H189.228C189.18 16.44 189.02 15.816 188.748 15.32C188.476 14.808 188.108 14.408 187.644 14.12C187.196 13.816 186.676 13.608 186.084 13.496C185.492 13.368 184.844 13.304 184.14 13.304C183.596 13.304 183.044 13.376 182.484 13.52C181.94 13.648 181.444 13.856 180.996 14.144C180.564 14.416 180.204 14.776 179.916 15.224C179.644 15.672 179.508 16.208 179.508 16.832C179.508 17.632 179.708 18.256 180.108 18.704C180.508 19.152 181.004 19.504 181.596 19.76C182.204 20 182.86 20.192 183.564 20.336C184.268 20.464 184.916 20.616 185.508 20.792C186.116 20.952 186.62 21.168 187.02 21.44C187.42 21.712 187.62 22.112 187.62 22.64C187.62 23.024 187.524 23.344 187.332 23.6C187.14 23.84 186.892 24.024 186.588 24.152C186.3 24.28 185.98 24.368 185.628 24.416C185.276 24.464 184.94 24.488 184.62 24.488C184.204 24.488 183.796 24.448 183.396 24.368C183.012 24.288 182.66 24.16 182.34 23.984C182.036 23.792 181.788 23.544 181.596 23.24C181.404 22.92 181.3 22.536 181.284 22.088Z" fill="black"/>
<g clip-path="url(#clip0_133_5147)">
<path fill-rule="evenodd" clip-rule="evenodd" d="M202.657 8.67196C202.768 8.5621 202.918 8.50049 203.074 8.50049C203.231 8.50049 203.381 8.5621 203.492 8.67196L212.321 17.1C212.377 17.1502 212.422 17.2119 212.453 17.2808C212.484 17.3497 212.5 17.4244 212.5 17.5C212.5 17.5755 212.484 17.6502 212.453 17.7191C212.422 17.7881 212.377 17.8497 212.321 17.9L203.521 26.328C203.41 26.4372 203.26 26.4988 203.104 26.5C202.948 26.4993 202.798 26.4375 202.687 26.328C202.631 26.2777 202.585 26.2161 202.555 26.1471C202.524 26.0782 202.508 26.0035 202.508 25.928C202.508 25.8524 202.524 25.7777 202.555 25.7088C202.585 25.6399 202.631 25.5782 202.687 25.528L211.038 17.499L202.655 9.46996C202.555 9.3608 202.5 9.21807 202.5 9.07007C202.5 8.92207 202.556 8.77962 202.657 8.67096V8.67196ZM216.657 8.67196C216.768 8.5621 216.918 8.50049 217.074 8.50049C217.231 8.50049 217.381 8.5621 217.492 8.67196L226.321 17.1C226.377 17.1502 226.422 17.2119 226.453 17.2808C226.484 17.3497 226.5 17.4244 226.5 17.5C226.5 17.5755 226.484 17.6502 226.453 17.7191C226.422 17.7881 226.377 17.8497 226.321 17.9L217.521 26.328C217.41 26.4372 217.26 26.4988 217.104 26.5C216.948 26.4993 216.798 26.4375 216.687 26.328C216.631 26.2777 216.585 26.2161 216.555 26.1471C216.524 26.0782 216.508 26.0035 216.508 25.928C216.508 25.8524 216.524 25.7777 216.555 25.7088C216.585 25.6399 216.631 25.5782 216.687 25.528L225.038 17.499L216.655 9.46996C216.555 9.3608 216.5 9.21807 216.5 9.07007C216.5 8.92207 216.556 8.77962 216.657 8.67096V8.67196Z" fill="black"/>
</g>
<defs>
<clipPath id="clip0_133_5147">
<rect width="24" height="24" fill="white" transform="translate(202.5 5.5)"/>
</clipPath>
</defs>
</svg>
