<svg width="78" height="60" viewBox="0 0 78 60" fill="none" xmlns="http://www.w3.org/2000/svg">
<path fill-rule="evenodd" clip-rule="evenodd" d="M47.2152 46.8887L58.2017 20.0229L48.3336 47.3199C48.3069 47.3939 48.2658 47.4619 48.2128 47.5201C48.1597 47.5782 48.0958 47.6253 48.0245 47.6587C47.9533 47.6921 47.8762 47.7112 47.7975 47.7148C47.7189 47.7184 47.6404 47.7065 47.5664 47.6797C47.4924 47.653 47.4244 47.6119 47.3663 47.5589C47.3081 47.5059 47.261 47.4419 47.2276 47.3707C47.1942 47.2994 47.1751 47.2223 47.1715 47.1437C47.1679 47.0651 47.1798 46.9865 47.2066 46.9125L47.2152 46.8887Z" fill="#010202"/>
<path d="M33.1036 47.9587C33.1036 47.9587 23.5115 45.5856 20.0933 41.6925C16.677 37.7974 11.1666 32.2908 11.6416 9.02403C11.6416 9.02403 15.2511 5.32123 34.4333 15.6719M48.0033 46.4709C47.4322 47.8958 49.2465 58.2142 49.2465 58.2142C49.2465 58.2142 41.8399 53.372 38.1371 44.4453C34.4324 35.5186 35.8583 33.7148 36.1429 28.4918C36.4266 23.2679 41.2355 15.1179 44.0721 12.3956C46.1157 10.4328 52.9578 5.27553 56.672 2.50843C56.9883 2.27328 57.3492 2.10505 57.7326 2.01401C58.116 1.92296 58.514 1.91101 58.9022 1.97889C59.2904 2.04677 59.6607 2.19305 59.9905 2.4088C60.3203 2.62455 60.6026 2.90525 60.8203 3.23376C65.1247 9.66845 67.5863 17.2387 67.4254 24.9794C67.3302 29.5703 66.3165 34.1993 63.3266 37.2615C63.3266 37.2615 56.2751 44.0655 50.5762 44.7299C44.8792 45.3943 48.6591 55.7945 48.6591 55.7945L48.0033 46.4709Z" stroke="#010202" stroke-width="0.5" stroke-linecap="round" stroke-linejoin="round"/>
<path fill-rule="evenodd" clip-rule="evenodd" d="M23.0545 19.3471C24.4642 20.744 25.8108 22.2031 27.0905 23.72C27.7321 24.4786 28.4127 25.2173 28.919 26.0902C29.3836 26.9659 29.9318 27.8949 29.9166 28.961C29.9165 28.9706 29.9132 28.9798 29.9072 28.9873C29.9012 28.9947 29.8929 29 29.8836 29.0021C29.8743 29.0043 29.8645 29.0034 29.8558 28.9994C29.8472 28.9954 29.8401 28.9886 29.8357 28.9801L29.8329 28.9725C29.3836 28.0958 28.7905 27.3447 28.2051 26.5642C27.6254 25.7837 27.1114 24.9479 26.5498 24.1398C25.3955 22.5371 24.2089 20.9579 22.9908 19.4032C22.9872 19.3988 22.9846 19.3938 22.983 19.3883C22.9815 19.3829 22.9811 19.3772 22.9818 19.3716C22.9825 19.366 22.9843 19.3606 22.9872 19.3557C22.99 19.3509 22.9938 19.3466 22.9984 19.3433C23.0065 19.3368 23.0168 19.3336 23.0272 19.3343C23.0376 19.335 23.0473 19.3396 23.0545 19.3471Z" fill="#010202"/>
</svg>
