<svg width="78" height="60" viewBox="0 0 78 60" fill="none" xmlns="http://www.w3.org/2000/svg">
<mask id="mask0_12_810" style="mask-type:alpha" maskUnits="userSpaceOnUse" x="0" y="13" width="70" height="45">
<path d="M0 13.6108H69.579V57.4446H0V13.6108Z" fill="white"/>
</mask>
<g mask="url(#mask0_12_810)">
<path fill-rule="evenodd" clip-rule="evenodd" d="M0.0590487 42.1785C2.33242 45.5994 5.13133 48.8746 8.41443 51.4245C10.058 52.7049 11.8412 53.8062 13.7593 54.5935C15.6804 55.3444 17.7471 55.8049 19.7882 56.1819C23.8911 56.9052 28.116 56.9594 32.2042 56.1986C36.3002 55.4753 40.2161 53.9518 43.8741 51.9825C47.5233 49.9719 50.9403 47.5411 53.9262 44.6379C56.9357 41.7592 59.5043 38.4427 61.8446 34.9834C64.117 31.4828 66.4337 27.9369 68.027 24.1155C68.3931 23.155 68.7385 22.1718 68.8468 21.1828C68.895 20.6907 68.8891 20.2006 68.7681 19.7538C68.6451 19.2971 68.3823 18.9714 68.0103 18.5512C67.4434 17.7983 66.4681 17.2826 65.6119 16.7157C64.7262 16.1685 63.8198 15.643 62.9075 15.1372L62.9036 15.1362L62.8612 15.1096C61.8604 14.4502 60.4855 14.2062 59.2081 14.2416C58.5704 14.2691 57.8775 14.3174 57.3057 14.5073C56.7039 14.7234 56.1402 15.0337 55.6357 15.4265C53.563 17.0257 51.9471 19.2401 50.5378 21.4741L50.5476 21.4544L43.3142 36.1044C40.4641 40.8204 36.2086 44.6467 31.1836 46.8551C28.6628 47.9449 25.9725 48.5908 23.2317 48.7644C20.5015 48.8946 17.7653 48.722 15.0732 48.2497C9.72827 47.2823 4.45522 45.2559 0.0590487 42.1805V42.1785ZM0 42.1126C4.57573 45.1036 9.7184 47.1204 15.1076 48.0371C17.7845 48.4849 20.5076 48.6355 23.216 48.4829C25.9184 48.2924 28.5675 47.6354 31.0458 46.5412C35.9764 44.3407 40.159 40.4867 42.9048 35.8908L50.0477 21.2093L50.0585 21.1896C51.4954 18.8887 53.0877 16.6547 55.2745 14.9413C55.8292 14.5044 56.4506 14.1595 57.1148 13.9198C57.8244 13.6875 58.4907 13.6521 59.1914 13.6137C60.578 13.5842 61.9952 13.7741 63.2618 14.5929L63.2175 14.5644C64.1456 15.0692 65.0614 15.5962 65.9642 16.1449C66.8431 16.7295 67.8105 17.195 68.5437 18.1132C68.8694 18.4685 69.2936 18.9842 69.4393 19.557C69.5977 20.1278 69.5997 20.7025 69.5505 21.2536C69.4324 22.3588 69.0781 23.3813 68.7071 24.3802C67.0862 28.3375 64.7951 31.8863 62.5296 35.4391C60.1972 38.9505 57.6118 42.3409 54.5373 45.2697C51.4954 48.229 48.0075 50.712 44.2993 52.7571C36.9005 56.9239 27.9969 58.4543 19.6799 56.7724C17.6024 56.3571 15.5524 55.8729 13.5645 55.0668C11.604 54.2303 9.79913 53.0789 8.15167 51.7542C4.8834 49.0503 2.12304 45.7858 0 42.1135" fill="#231F20"/>
</g>
<mask id="mask1_12_810" style="mask-type:alpha" maskUnits="userSpaceOnUse" x="62" y="0" width="15" height="15">
<path d="M62.5347 0H76.9484V14.7917H62.5347V0Z" fill="white"/>
</mask>
<g mask="url(#mask1_12_810)">
<path fill-rule="evenodd" clip-rule="evenodd" d="M62.5443 14.7199C63.8109 13.0813 65.0775 11.4693 66.164 9.74701C67.2898 8.07495 68.1667 6.23066 69.2119 4.41688C69.7256 3.51344 70.2452 2.61196 70.8672 1.75773C71.1782 1.33258 71.5069 0.913331 71.9281 0.550182C72.3355 0.156524 72.9752 -0.0383367 73.5116 0.00398148C74.6335 0.0335058 75.6551 0.712565 76.1983 1.62782C76.7406 2.55488 76.9285 3.61776 76.9482 4.64914C76.9486 4.65499 76.9478 4.66086 76.9459 4.66639C76.944 4.67193 76.9409 4.67701 76.937 4.68133C76.933 4.68566 76.9282 4.68914 76.9229 4.69155C76.9175 4.69397 76.9118 4.69528 76.9059 4.6954C76.8946 4.69542 76.8838 4.69116 76.8756 4.68349C76.8674 4.67581 76.8624 4.66529 76.8616 4.65406C76.7829 3.63351 76.5319 2.60803 75.9759 1.77347C75.4198 0.94876 74.4721 0.415354 73.5076 0.446846C72.4999 0.37402 71.9153 1.26762 71.3376 2.08742C70.7796 2.92886 70.3043 3.83919 69.8358 4.75149C68.9038 6.55543 68.1756 8.55029 66.8952 10.2489C65.6414 11.9259 64.2449 13.4907 62.6063 14.7839C62.6016 14.7873 62.5962 14.7898 62.5906 14.7911C62.5849 14.7925 62.579 14.7927 62.5732 14.7918C62.5675 14.7909 62.5619 14.7889 62.557 14.7858C62.552 14.7828 62.5477 14.7787 62.5443 14.774C62.5305 14.7583 62.5325 14.7356 62.5443 14.7199Z" fill="#231F20"/>
</g>
<path fill-rule="evenodd" clip-rule="evenodd" d="M67.5339 17.697C67.5496 16.147 67.7779 14.6304 68.0053 13.1138C68.2562 11.6012 68.6784 10.122 69.08 8.64287C69.4719 7.15887 69.9134 5.68839 70.4036 4.2339C70.6595 3.50957 70.9351 2.78819 71.2608 2.08847C71.6171 1.43303 71.8936 0.605362 72.6741 0.281578C72.6977 0.274689 72.7223 0.283547 72.7311 0.306182C72.738 0.325865 72.7311 0.350468 72.7095 0.359326L72.6898 0.370151C72.0403 0.692951 71.7903 1.52652 71.5049 2.19279C71.2392 2.90137 71.0227 3.63161 70.8258 4.36676C70.4243 5.83477 70.0718 7.31575 69.7689 8.80722C69.4608 10.3012 69.2364 11.8098 68.8733 13.291C68.4885 14.7682 68.1381 16.2533 67.6205 17.7108C67.6187 17.7165 67.6158 17.7217 67.6119 17.7263C67.6081 17.7308 67.6033 17.7345 67.598 17.7372C67.5927 17.7399 67.5869 17.7414 67.5809 17.7418C67.575 17.7421 67.569 17.7413 67.5634 17.7393C67.5457 17.7344 67.5339 17.7147 67.5339 17.697ZM48.8824 32.8036C49.9472 29.7941 51.2227 26.8564 52.7658 24.0388C53.5482 22.6374 54.3542 21.2242 55.4476 20.0009C56.5528 18.8603 57.9208 17.6222 59.6194 17.5582C59.644 17.5563 59.6637 17.5759 59.6656 17.6006C59.6656 17.6202 59.6489 17.638 59.6312 17.6448C58.1383 18.1979 57.0921 19.374 56.1208 20.5756C55.173 21.8058 54.2312 23.0645 53.3779 24.398C51.7246 27.0926 50.2621 29.9289 48.9641 32.8351C48.9621 32.8406 48.959 32.8457 48.9551 32.85C48.9511 32.8543 48.9463 32.8577 48.941 32.8601C48.9356 32.8625 48.9299 32.8638 48.924 32.8639C48.9182 32.864 48.9124 32.8629 48.907 32.8607C48.8965 32.8559 48.8882 32.8475 48.8837 32.8369C48.8791 32.8264 48.8787 32.8145 48.8824 32.8036Z" fill="#231F20"/>
</svg>
